# MagicaVoxel @ Ephtracy

# group
o 

# material
mtllib recycle_vox_plasticbottle.mtl
usemtl palette

# normals
vn -1 0 0
vn 1 0 0
vn 0 0 1
vn 0 0 -1
vn 0 -1 0
vn 0 1 0

# texcoords
vt 0.146484 0.5
vt 0.615234 0.5
vt 0.623047 0.5
vt 0.642578 0.5
vt 0.748047 0.5
vt 0.771484 0.5
vt 0.791016 0.5
vt 0.916016 0.5
vt 0.927734 0.5
vt 0.931641 0.5

# verts
v -0.6 0.1 -0.1
v -0.6 0.1 -0.4
v -0.6 0.5 -0.3
v -0.6 0.5 -0.4
v -0.6 0.6 -0.3
v -0.6 0.6 -0.4
v -0.6 0.8 -0.3
v -0.6 0.8 -0.4
v -0.6 0.9 -0.1
v -0.6 0.9 -0.3
v -0.6 0.9 -0.4
v -0.5 0 -0.1
v -0.5 0 -0.4
v -0.5 0.1 5.96046e-08
v -0.5 0.1 -0.1
v -0.5 0.1 -0.4
v -0.5 0.1 -0.5
v -0.5 0.5 -0.4
v -0.5 0.6 -0.4
v -0.5 0.8 5.96046e-08
v -0.5 0.8 -0.1
v -0.5 0.8 -0.4
v -0.5 0.9 5.96046e-08
v -0.5 0.9 -0.1
v -0.5 0.9 -0.3
v -0.5 0.9 -0.4
v -0.5 0.9 -0.5
v -0.5 1 -0.1
v -0.5 1 -0.4
v -0.4 0 5.96046e-08
v -0.4 0 -0.1
v -0.4 0 -0.4
v -0.4 0 -0.5
v -0.4 0.1 0.1
v -0.4 0.1 5.96046e-08
v -0.4 0.1 -0.1
v -0.4 0.1 -0.4
v -0.4 0.1 -0.5
v -0.4 0.1 -0.6
v -0.4 0.3 -0.5
v -0.4 0.3 -0.6
v -0.4 0.4 -0.5
v -0.4 0.4 -0.6
v -0.4 0.8 5.96046e-08
v -0.4 0.9 0.1
v -0.4 0.9 5.96046e-08
v -0.4 0.9 -0.1
v -0.4 0.9 -0.4
v -0.4 0.9 -0.5
v -0.4 0.9 -0.6
v -0.4 1 5.96046e-08
v -0.4 1 -0.1
v -0.4 1 -0.4
v -0.4 1 -0.5
v -0.4 1.2 -0.1
v -0.4 1.2 -0.4
v -0.1 0.1 0.4
v -0.1 0.1 0.1
v -0.1 0.9 0.4
v -0.1 0.9 0.1
v -5.96046e-08 0 0.4
v -5.96046e-08 0 0.1
v -5.96046e-08 0.1 0.5
v -5.96046e-08 0.1 0.4
v -5.96046e-08 0.1 0.1
v -5.96046e-08 0.1 5.96046e-08
v -5.96046e-08 0.9 0.5
v -5.96046e-08 0.9 0.4
v -5.96046e-08 0.9 0.1
v -5.96046e-08 0.9 5.96046e-08
v -5.96046e-08 1 0.4
v -5.96046e-08 1 0.1
v 0.1 0 0.5
v 0.1 0 0.4
v 0.1 0 0.1
v 0.1 0 5.96046e-08
v 0.1 0.1 0.6
v 0.1 0.1 0.5
v 0.1 0.1 0.4
v 0.1 0.1 0.1
v 0.1 0.1 5.96046e-08
v 0.1 0.1 -0.1
v 0.1 0.6 0.6
v 0.1 0.6 0.5
v 0.1 0.7 0.6
v 0.1 0.7 0.5
v 0.1 0.9 0.6
v 0.1 0.9 0.5
v 0.1 0.9 0.4
v 0.1 0.9 0.1
v 0.1 0.9 5.96046e-08
v 0.1 0.9 -0.1
v 0.1 1 0.5
v 0.1 1 0.4
v 0.1 1 0.1
v 0.1 1 5.96046e-08
v 0.1 1.2 0.4
v 0.1 1.2 0.1
v -0.1 0 5.96046e-08
v -0.1 0 -0.1
v -0.1 0 -0.4
v -0.1 0 -0.5
v -0.1 0.1 0.1
v -0.1 0.1 5.96046e-08
v -0.1 0.1 -0.1
v -0.1 0.1 -0.4
v -0.1 0.1 -0.5
v -0.1 0.1 -0.6
v -0.1 0.6 -0.5
v -0.1 0.6 -0.6
v -0.1 0.7 -0.5
v -0.1 0.7 -0.6
v -0.1 0.9 0.1
v -0.1 0.9 5.96046e-08
v -0.1 0.9 -0.1
v -0.1 0.9 -0.4
v -0.1 0.9 -0.5
v -0.1 0.9 -0.6
v -0.1 1 5.96046e-08
v -0.1 1 -0.1
v -0.1 1 -0.4
v -0.1 1 -0.5
v -0.1 1.2 -0.1
v -0.1 1.2 -0.4
v -5.96046e-08 0 -0.1
v -5.96046e-08 0 -0.2
v -5.96046e-08 0 -0.3
v -5.96046e-08 0 -0.4
v -5.96046e-08 0.1 5.96046e-08
v -5.96046e-08 0.1 -0.1
v -5.96046e-08 0.1 -0.2
v -5.96046e-08 0.1 -0.3
v -5.96046e-08 0.1 -0.4
v -5.96046e-08 0.1 -0.5
v -5.96046e-08 0.3 -0.4
v -5.96046e-08 0.4 -0.4
v -5.96046e-08 0.6 -0.4
v -5.96046e-08 0.7 -0.4
v -5.96046e-08 0.9 5.96046e-08
v -5.96046e-08 0.9 -0.1
v -5.96046e-08 0.9 -0.4
v -5.96046e-08 0.9 -0.5
v -5.96046e-08 1 -0.1
v -5.96046e-08 1 -0.4
v 0.1 0.1 -0.1
v 0.1 0.1 -0.4
v 0.1 0.3 -0.3
v 0.1 0.3 -0.4
v 0.1 0.4 -0.3
v 0.1 0.4 -0.4
v 0.1 0.6 -0.3
v 0.1 0.6 -0.4
v 0.1 0.7 -0.3
v 0.1 0.7 -0.4
v 0.1 0.9 -0.1
v 0.1 0.9 -0.4
v 0.4 0 0.5
v 0.4 0 0.4
v 0.4 0 0.1
v 0.4 0 5.96046e-08
v 0.4 0.1 0.6
v 0.4 0.1 0.5
v 0.4 0.1 0.4
v 0.4 0.1 0.1
v 0.4 0.1 5.96046e-08
v 0.4 0.1 -0.1
v 0.4 0.2 0.6
v 0.4 0.2 0.5
v 0.4 0.3 0.6
v 0.4 0.3 0.5
v 0.4 0.3 5.96046e-08
v 0.4 0.3 -0.1
v 0.4 0.4 5.96046e-08
v 0.4 0.4 -0.1
v 0.4 0.6 5.96046e-08
v 0.4 0.6 -0.1
v 0.4 0.7 5.96046e-08
v 0.4 0.7 -0.1
v 0.4 0.9 0.6
v 0.4 0.9 0.5
v 0.4 0.9 0.4
v 0.4 0.9 0.1
v 0.4 0.9 5.96046e-08
v 0.4 0.9 -0.1
v 0.4 1 0.5
v 0.4 1 0.4
v 0.4 1 0.1
v 0.4 1 5.96046e-08
v 0.4 1.2 0.4
v 0.4 1.2 0.1
v 0.5 0 0.4
v 0.5 0 0.1
v 0.5 0.1 0.5
v 0.5 0.1 0.4
v 0.5 0.1 0.1
v 0.5 0.1 5.96046e-08
v 0.5 0.5 0.4
v 0.5 0.7 0.4
v 0.5 0.9 0.5
v 0.5 0.9 0.4
v 0.5 0.9 0.1
v 0.5 0.9 5.96046e-08
v 0.5 1 0.4
v 0.5 1 0.1
v 0.6 0.1 0.4
v 0.6 0.1 0.1
v 0.6 0.5 0.4
v 0.6 0.5 0.3
v 0.6 0.7 0.4
v 0.6 0.7 0.3
v 0.6 0.9 0.4
v 0.6 0.9 0.1
v 0.1 0.1 0.6
v 0.1 0.6 0.6
v 0.1 0.7 0.6
v 0.1 0.9 0.6
v 0.2 0.6 0.6
v 0.2 0.7 0.6
v 0.3 0.2 0.6
v 0.3 0.3 0.6
v 0.4 0.1 0.6
v 0.4 0.2 0.6
v 0.4 0.3 0.6
v 0.4 0.9 0.6
v -5.96046e-08 0.1 0.5
v -5.96046e-08 0.9 0.5
v 0.1 0 0.5
v 0.1 0.1 0.5
v 0.1 0.6 0.5
v 0.1 0.7 0.5
v 0.1 0.9 0.5
v 0.1 1 0.5
v 0.4 0 0.5
v 0.4 0.1 0.5
v 0.4 0.2 0.5
v 0.4 0.3 0.5
v 0.4 0.9 0.5
v 0.4 1 0.5
v 0.5 0.1 0.5
v 0.5 0.9 0.5
v -0.1 0.1 0.4
v -0.1 0.9 0.4
v -5.96046e-08 0 0.4
v -5.96046e-08 0.1 0.4
v -5.96046e-08 0.9 0.4
v -5.96046e-08 1 0.4
v 0.1 0 0.4
v 0.1 0.1 0.4
v 0.1 0.9 0.4
v 0.1 1 0.4
v 0.1 1.2 0.4
v 0.4 0 0.4
v 0.4 0.1 0.4
v 0.4 0.9 0.4
v 0.4 1 0.4
v 0.4 1.2 0.4
v 0.5 0 0.4
v 0.5 0.1 0.4
v 0.5 0.5 0.4
v 0.5 0.7 0.4
v 0.5 0.9 0.4
v 0.5 1 0.4
v 0.6 0.1 0.4
v 0.6 0.5 0.4
v 0.6 0.7 0.4
v 0.6 0.9 0.4
v -0.4 0.1 0.1
v -0.4 0.9 0.1
v -0.1 0.1 0.1
v -0.1 0.9 0.1
v -0.5 0.1 5.96046e-08
v -0.5 0.8 5.96046e-08
v -0.5 0.9 5.96046e-08
v -0.4 0 5.96046e-08
v -0.4 0.1 5.96046e-08
v -0.4 0.8 5.96046e-08
v -0.4 0.9 5.96046e-08
v -0.4 1 5.96046e-08
v -0.1 0 5.96046e-08
v -0.1 0.1 5.96046e-08
v -0.1 0.9 5.96046e-08
v -0.1 1 5.96046e-08
v -5.96046e-08 0.1 5.96046e-08
v -5.96046e-08 0.9 5.96046e-08
v -0.6 0.1 -0.1
v -0.6 0.9 -0.1
v -0.5 0 -0.1
v -0.5 0.1 -0.1
v -0.5 0.8 -0.1
v -0.5 0.9 -0.1
v -0.5 1 -0.1
v -0.4 0 -0.1
v -0.4 0.1 -0.1
v -0.4 0.9 -0.1
v -0.4 1 -0.1
v -0.4 1.2 -0.1
v -0.1 0 -0.1
v -0.1 0.1 -0.1
v -0.1 0.9 -0.1
v -0.1 1 -0.1
v -0.1 1.2 -0.1
v -5.96046e-08 0 -0.1
v -5.96046e-08 0.1 -0.1
v -5.96046e-08 0.9 -0.1
v -5.96046e-08 1 -0.1
v 0.1 0.1 -0.1
v 0.1 0.9 -0.1
v -0.1 0.1 0.1
v -0.1 0.9 0.1
v -5.96046e-08 0 0.1
v -5.96046e-08 0.1 0.1
v -5.96046e-08 0.9 0.1
v -5.96046e-08 1 0.1
v 0.1 0 0.1
v 0.1 0.1 0.1
v 0.1 0.9 0.1
v 0.1 1 0.1
v 0.1 1.2 0.1
v 0.3 1 0.1
v 0.4 0 0.1
v 0.4 0.1 0.1
v 0.4 0.9 0.1
v 0.4 1 0.1
v 0.4 1.2 0.1
v 0.5 0 0.1
v 0.5 0.1 0.1
v 0.5 0.9 0.1
v 0.5 1 0.1
v 0.6 0.1 0.1
v 0.6 0.9 0.1
v -5.96046e-08 0.1 5.96046e-08
v -5.96046e-08 0.9 5.96046e-08
v 0.1 0 5.96046e-08
v 0.1 0.1 5.96046e-08
v 0.1 0.9 5.96046e-08
v 0.1 1 5.96046e-08
v 0.3 0.9 5.96046e-08
v 0.3 1 5.96046e-08
v 0.4 0 5.96046e-08
v 0.4 0.1 5.96046e-08
v 0.4 0.3 5.96046e-08
v 0.4 0.4 5.96046e-08
v 0.4 0.6 5.96046e-08
v 0.4 0.7 5.96046e-08
v 0.4 0.9 5.96046e-08
v 0.4 1 5.96046e-08
v 0.5 0.1 5.96046e-08
v 0.5 0.9 5.96046e-08
v 0.1 0.1 -0.1
v 0.1 0.9 -0.1
v 0.3 0.3 -0.1
v 0.3 0.4 -0.1
v 0.3 0.6 -0.1
v 0.3 0.7 -0.1
v 0.4 0.1 -0.1
v 0.4 0.3 -0.1
v 0.4 0.4 -0.1
v 0.4 0.6 -0.1
v 0.4 0.7 -0.1
v 0.4 0.9 -0.1
v -0.6 0.1 -0.4
v -0.6 0.5 -0.4
v -0.6 0.6 -0.4
v -0.6 0.8 -0.4
v -0.6 0.9 -0.4
v -0.5 0 -0.4
v -0.5 0.1 -0.4
v -0.5 0.5 -0.4
v -0.5 0.6 -0.4
v -0.5 0.8 -0.4
v -0.5 0.9 -0.4
v -0.5 1 -0.4
v -0.4 0 -0.4
v -0.4 0.1 -0.4
v -0.4 0.9 -0.4
v -0.4 1 -0.4
v -0.4 1.2 -0.4
v -0.1 0 -0.4
v -0.1 0.1 -0.4
v -0.1 0.9 -0.4
v -0.1 1 -0.4
v -0.1 1.2 -0.4
v -5.96046e-08 0 -0.4
v -5.96046e-08 0.1 -0.4
v -5.96046e-08 0.3 -0.4
v -5.96046e-08 0.4 -0.4
v -5.96046e-08 0.6 -0.4
v -5.96046e-08 0.7 -0.4
v -5.96046e-08 0.9 -0.4
v -5.96046e-08 1 -0.4
v 0.1 0.1 -0.4
v 0.1 0.3 -0.4
v 0.1 0.4 -0.4
v 0.1 0.6 -0.4
v 0.1 0.7 -0.4
v 0.1 0.9 -0.4
v -0.5 0.1 -0.5
v -0.5 0.9 -0.5
v -0.4 0 -0.5
v -0.4 0.1 -0.5
v -0.4 0.3 -0.5
v -0.4 0.4 -0.5
v -0.4 0.9 -0.5
v -0.4 1 -0.5
v -0.2 0 -0.5
v -0.2 0.1 -0.5
v -0.1 0 -0.5
v -0.1 0.1 -0.5
v -0.1 0.6 -0.5
v -0.1 0.7 -0.5
v -0.1 0.9 -0.5
v -0.1 1 -0.5
v -5.96046e-08 0.1 -0.5
v -5.96046e-08 0.9 -0.5
v -0.4 0.1 -0.6
v -0.4 0.3 -0.6
v -0.4 0.4 -0.6
v -0.4 0.9 -0.6
v -0.3 0.3 -0.6
v -0.3 0.4 -0.6
v -0.2 0.6 -0.6
v -0.2 0.7 -0.6
v -0.1 0.1 -0.6
v -0.1 0.6 -0.6
v -0.1 0.7 -0.6
v -0.1 0.9 -0.6
v 0.1 0 0.5
v 0.4 0 0.5
v -5.96046e-08 0 0.4
v 0.1 0 0.4
v 0.4 0 0.4
v 0.5 0 0.4
v -5.96046e-08 0 0.1
v 0.1 0 0.1
v 0.4 0 0.1
v 0.5 0 0.1
v -0.4 0 5.96046e-08
v -0.1 0 5.96046e-08
v 0.1 0 5.96046e-08
v 0.4 0 5.96046e-08
v -0.5 0 -0.1
v -0.4 0 -0.1
v -0.1 0 -0.1
v -5.96046e-08 0 -0.1
v -0.1 0 -0.2
v -5.96046e-08 0 -0.2
v -0.1 0 -0.3
v -5.96046e-08 0 -0.3
v -0.5 0 -0.4
v -0.4 0 -0.4
v -0.2 0 -0.4
v -0.1 0 -0.4
v -5.96046e-08 0 -0.4
v -0.4 0 -0.5
v -0.2 0 -0.5
v -0.1 0 -0.5
v 0.1 0.1 0.6
v 0.4 0.1 0.6
v -5.96046e-08 0.1 0.5
v 0.1 0.1 0.5
v 0.4 0.1 0.5
v 0.5 0.1 0.5
v -0.1 0.1 0.4
v -5.96046e-08 0.1 0.4
v 0.1 0.1 0.4
v 0.4 0.1 0.4
v 0.5 0.1 0.4
v 0.6 0.1 0.4
v -0.4 0.1 0.1
v -0.1 0.1 0.1
v -5.96046e-08 0.1 0.1
v 0.1 0.1 0.1
v 0.4 0.1 0.1
v 0.5 0.1 0.1
v 0.6 0.1 0.1
v -0.5 0.1 5.96046e-08
v -0.4 0.1 5.96046e-08
v -0.1 0.1 5.96046e-08
v -5.96046e-08 0.1 5.96046e-08
v 0.1 0.1 5.96046e-08
v 0.4 0.1 5.96046e-08
v 0.5 0.1 5.96046e-08
v -0.6 0.1 -0.1
v -0.5 0.1 -0.1
v -0.4 0.1 -0.1
v -0.1 0.1 -0.1
v -5.96046e-08 0.1 -0.1
v 0.1 0.1 -0.1
v 0.4 0.1 -0.1
v -5.96046e-08 0.1 -0.2
v -5.96046e-08 0.1 -0.3
v -0.6 0.1 -0.4
v -0.5 0.1 -0.4
v -0.4 0.1 -0.4
v -0.1 0.1 -0.4
v -5.96046e-08 0.1 -0.4
v 0.1 0.1 -0.4
v -0.5 0.1 -0.5
v -0.4 0.1 -0.5
v -0.2 0.1 -0.5
v -0.1 0.1 -0.5
v -5.96046e-08 0.1 -0.5
v -0.4 0.1 -0.6
v -0.1 0.1 -0.6
v 0.1 0.9 0.6
v 0.4 0.9 0.6
v -5.96046e-08 0.9 0.5
v 0.1 0.9 0.5
v 0.4 0.9 0.5
v 0.5 0.9 0.5
v -0.1 0.9 0.4
v -5.96046e-08 0.9 0.4
v 0.1 0.9 0.4
v 0.4 0.9 0.4
v 0.5 0.9 0.4
v 0.6 0.9 0.4
v -0.4 0.9 0.1
v -0.1 0.9 0.1
v -5.96046e-08 0.9 0.1
v 0.1 0.9 0.1
v 0.4 0.9 0.1
v 0.5 0.9 0.1
v 0.6 0.9 0.1
v -0.5 0.9 5.96046e-08
v -0.4 0.9 5.96046e-08
v -0.1 0.9 5.96046e-08
v -5.96046e-08 0.9 5.96046e-08
v 0.1 0.9 5.96046e-08
v 0.3 0.9 5.96046e-08
v 0.4 0.9 5.96046e-08
v 0.5 0.9 5.96046e-08
v -0.6 0.9 -0.1
v -0.5 0.9 -0.1
v -0.4 0.9 -0.1
v -0.1 0.9 -0.1
v -5.96046e-08 0.9 -0.1
v 0.1 0.9 -0.1
v 0.4 0.9 -0.1
v -0.6 0.9 -0.3
v -0.5 0.9 -0.3
v -0.6 0.9 -0.4
v -0.5 0.9 -0.4
v -0.4 0.9 -0.4
v -0.1 0.9 -0.4
v -5.96046e-08 0.9 -0.4
v 0.1 0.9 -0.4
v -0.5 0.9 -0.5
v -0.4 0.9 -0.5
v -0.1 0.9 -0.5
v -5.96046e-08 0.9 -0.5
v -0.4 0.9 -0.6
v -0.1 0.9 -0.6
v 0.1 1 0.5
v 0.4 1 0.5
v -5.96046e-08 1 0.4
v 0.1 1 0.4
v 0.4 1 0.4
v 0.5 1 0.4
v -5.96046e-08 1 0.1
v 0.1 1 0.1
v 0.3 1 0.1
v 0.4 1 0.1
v 0.5 1 0.1
v -0.4 1 5.96046e-08
v -0.1 1 5.96046e-08
v 0.1 1 5.96046e-08
v 0.3 1 5.96046e-08
v 0.4 1 5.96046e-08
v -0.5 1 -0.1
v -0.4 1 -0.1
v -0.1 1 -0.1
v -5.96046e-08 1 -0.1
v -0.5 1 -0.4
v -0.4 1 -0.4
v -0.1 1 -0.4
v -5.96046e-08 1 -0.4
v -0.4 1 -0.5
v -0.1 1 -0.5
v 0.1 1.2 0.4
v 0.4 1.2 0.4
v 0.1 1.2 0.1
v 0.4 1.2 0.1
v -0.4 1.2 -0.1
v -0.1 1.2 -0.1
v -0.4 1.2 -0.4
v -0.1 1.2 -0.4

# faces
f 3/5/1 2/5/1 1/5/1
f 4/5/1 2/5/1 3/5/1
f 5/5/1 3/5/1 1/5/1
f 5/8/1 4/8/1 3/8/1
f 6/8/1 4/8/1 5/8/1
f 7/5/1 5/5/1 1/5/1
f 7/5/1 6/5/1 5/5/1
f 8/5/1 6/5/1 7/5/1
f 9/5/1 7/5/1 1/5/1
f 10/8/1 8/8/1 7/8/1
f 10/5/1 7/5/1 9/5/1
f 11/8/1 8/8/1 10/8/1
f 15/5/1 13/5/1 12/5/1
f 16/5/1 13/5/1 15/5/1
f 18/5/1 17/5/1 16/5/1
f 19/5/1 17/5/1 18/5/1
f 20/5/1 15/5/1 14/5/1
f 21/5/1 15/5/1 20/5/1
f 22/5/1 17/5/1 19/5/1
f 23/8/1 21/8/1 20/8/1
f 24/8/1 21/8/1 23/8/1
f 26/5/1 17/5/1 22/5/1
f 27/5/1 17/5/1 26/5/1
f 28/5/1 25/5/1 24/5/1
f 28/5/1 26/5/1 25/5/1
f 29/5/1 26/5/1 28/5/1
f 35/5/1 31/5/1 30/5/1
f 36/5/1 31/5/1 35/5/1
f 37/5/1 33/5/1 32/5/1
f 38/5/1 33/5/1 37/5/1
f 40/5/1 39/5/1 38/5/1
f 41/5/1 39/5/1 40/5/1
f 42/8/1 41/8/1 40/8/1
f 43/8/1 41/8/1 42/8/1
f 44/5/1 35/5/1 34/5/1
f 45/5/1 44/5/1 34/5/1
f 46/5/1 44/5/1 45/5/1
f 49/5/1 43/5/1 42/5/1
f 50/5/1 43/5/1 49/5/1
f 51/5/1 47/5/1 46/5/1
f 52/5/1 47/5/1 51/5/1
f 53/5/1 49/5/1 48/5/1
f 54/5/1 49/5/1 53/5/1
f 55/7/1 53/7/1 52/7/1
f 56/7/1 53/7/1 55/7/1
f 59/5/1 58/5/1 57/5/1
f 60/5/1 58/5/1 59/5/1
f 64/5/1 62/5/1 61/5/1
f 65/5/1 62/5/1 64/5/1
f 67/5/1 64/5/1 63/5/1
f 68/5/1 64/5/1 67/5/1
f 69/5/1 66/5/1 65/5/1
f 70/5/1 66/5/1 69/5/1
f 71/5/1 69/5/1 68/5/1
f 72/5/1 69/5/1 71/5/1
f 78/5/1 74/5/1 73/5/1
f 79/5/1 74/5/1 78/5/1
f 80/5/1 76/5/1 75/5/1
f 81/5/1 76/5/1 80/5/1
f 83/5/1 78/5/1 77/5/1
f 84/5/1 78/5/1 83/5/1
f 85/8/1 84/8/1 83/8/1
f 86/8/1 84/8/1 85/8/1
f 87/5/1 86/5/1 85/5/1
f 88/5/1 86/5/1 87/5/1
f 91/5/1 82/5/1 81/5/1
f 92/5/1 82/5/1 91/5/1
f 93/5/1 89/5/1 88/5/1
f 94/5/1 89/5/1 93/5/1
f 95/5/1 91/5/1 90/5/1
f 96/5/1 91/5/1 95/5/1
f 97/7/1 95/7/1 94/7/1
f 98/7/1 95/7/1 97/7/1
f 99/5/2 100/5/2 104/5/2
f 104/5/2 100/5/2 105/5/2
f 101/6/2 102/6/2 106/6/2
f 106/6/2 102/6/2 107/6/2
f 107/5/2 108/5/2 109/5/2
f 109/5/2 108/5/2 110/5/2
f 109/8/2 110/8/2 111/8/2
f 111/8/2 110/8/2 112/8/2
f 103/5/2 104/5/2 113/5/2
f 113/5/2 104/5/2 114/5/2
f 111/5/2 112/5/2 117/5/2
f 117/5/2 112/5/2 118/5/2
f 114/5/2 115/5/2 119/5/2
f 119/5/2 115/5/2 120/5/2
f 116/5/2 117/5/2 121/5/2
f 121/5/2 117/5/2 122/5/2
f 120/7/2 121/7/2 123/7/2
f 123/7/2 121/7/2 124/7/2
f 125/6/2 126/6/2 130/6/2
f 126/5/2 127/5/2 131/5/2
f 130/6/2 126/6/2 131/6/2
f 127/6/2 128/6/2 132/6/2
f 131/5/2 127/5/2 132/5/2
f 132/6/2 128/6/2 133/6/2
f 133/5/2 134/5/2 135/5/2
f 135/5/2 134/5/2 136/5/2
f 136/5/2 134/5/2 137/5/2
f 137/5/2 134/5/2 138/5/2
f 129/5/2 130/5/2 139/5/2
f 139/5/2 130/5/2 140/5/2
f 138/5/2 134/5/2 141/5/2
f 141/5/2 134/5/2 142/5/2
f 140/5/2 141/5/2 143/5/2
f 143/5/2 141/5/2 144/5/2
f 145/5/2 146/5/2 147/5/2
f 147/5/2 146/5/2 148/5/2
f 145/5/2 147/5/2 149/5/2
f 147/8/2 148/8/2 149/8/2
f 149/8/2 148/8/2 150/8/2
f 145/5/2 149/5/2 151/5/2
f 149/5/2 150/5/2 151/5/2
f 151/5/2 150/5/2 152/5/2
f 145/5/2 151/5/2 153/5/2
f 151/8/2 152/8/2 153/8/2
f 153/8/2 152/8/2 154/8/2
f 145/5/2 153/5/2 155/5/2
f 153/5/2 154/5/2 155/5/2
f 155/5/2 154/5/2 156/5/2
f 157/5/2 158/5/2 162/5/2
f 162/5/2 158/5/2 163/5/2
f 159/5/2 160/5/2 164/5/2
f 164/5/2 160/5/2 165/5/2
f 161/5/2 162/5/2 167/5/2
f 167/5/2 162/5/2 168/5/2
f 167/8/2 168/8/2 169/8/2
f 169/8/2 168/8/2 170/8/2
f 165/5/2 166/5/2 171/5/2
f 171/5/2 166/5/2 172/5/2
f 171/8/2 172/8/2 173/8/2
f 173/8/2 172/8/2 174/8/2
f 173/5/2 174/5/2 175/5/2
f 175/5/2 174/5/2 176/5/2
f 175/8/2 176/8/2 177/8/2
f 177/8/2 176/8/2 178/8/2
f 169/5/2 170/5/2 179/5/2
f 179/5/2 170/5/2 180/5/2
f 177/5/2 178/5/2 183/5/2
f 183/5/2 178/5/2 184/5/2
f 180/5/2 181/5/2 185/5/2
f 185/5/2 181/5/2 186/5/2
f 182/8/2 183/8/2 187/8/2
f 187/8/2 183/8/2 188/8/2
f 186/7/2 187/7/2 189/7/2
f 189/7/2 187/7/2 190/7/2
f 191/6/2 192/6/2 194/6/2
f 194/6/2 192/6/2 195/6/2
f 193/5/2 194/5/2 197/5/2
f 193/5/2 197/5/2 198/5/2
f 193/5/2 198/5/2 199/5/2
f 199/5/2 198/5/2 200/5/2
f 195/5/2 196/5/2 201/5/2
f 201/5/2 196/5/2 202/5/2
f 200/5/2 201/5/2 203/5/2
f 203/5/2 201/5/2 204/5/2
f 205/5/2 206/5/2 207/5/2
f 207/5/2 206/5/2 208/5/2
f 207/8/2 208/8/2 209/8/2
f 208/5/2 206/5/2 210/5/2
f 209/8/2 208/8/2 210/8/2
f 209/5/2 210/5/2 211/5/2
f 210/5/2 206/5/2 212/5/2
f 211/5/2 210/5/2 212/5/2
f 217/5/3 214/5/3 213/5/3
f 217/8/3 215/8/3 214/8/3
f 218/5/3 216/5/3 215/5/3
f 218/8/3 215/8/3 217/8/3
f 219/5/3 217/5/3 213/5/3
f 219/5/3 218/5/3 217/5/3
f 220/5/3 218/5/3 219/5/3
f 221/5/3 219/5/3 213/5/3
f 222/8/3 220/8/3 219/8/3
f 222/5/3 219/5/3 221/5/3
f 223/5/3 218/5/3 220/5/3
f 223/8/3 220/8/3 222/8/3
f 224/5/3 216/5/3 218/5/3
f 224/5/3 218/5/3 223/5/3
f 228/5/3 226/5/3 225/5/3
f 229/5/3 226/5/3 228/5/3
f 230/5/3 226/5/3 229/5/3
f 231/5/3 226/5/3 230/5/3
f 233/5/3 228/5/3 227/5/3
f 234/5/3 228/5/3 233/5/3
f 237/5/3 232/5/3 231/5/3
f 238/5/3 232/5/3 237/5/3
f 239/5/3 236/5/3 235/5/3
f 239/5/3 237/5/3 236/5/3
f 239/5/3 235/5/3 234/5/3
f 240/5/3 237/5/3 239/5/3
f 244/5/3 242/5/3 241/5/3
f 245/5/3 242/5/3 244/5/3
f 247/5/3 244/5/3 243/5/3
f 248/5/3 244/5/3 247/5/3
f 249/5/3 246/5/3 245/5/3
f 250/5/3 246/5/3 249/5/3
f 255/7/3 251/7/3 250/7/3
f 256/7/3 251/7/3 255/7/3
f 257/6/3 253/6/3 252/6/3
f 258/6/3 253/6/3 257/6/3
f 261/5/3 255/5/3 254/5/3
f 262/5/3 255/5/3 261/5/3
f 263/5/3 259/5/3 258/5/3
f 264/8/3 260/8/3 259/8/3
f 264/5/3 259/5/3 263/5/3
f 265/5/3 261/5/3 260/5/3
f 265/8/3 260/8/3 264/8/3
f 266/5/3 261/5/3 265/5/3
f 269/5/3 268/5/3 267/5/3
f 270/5/3 268/5/3 269/5/3
f 275/5/3 272/5/3 271/5/3
f 276/8/3 273/8/3 272/8/3
f 276/5/3 272/5/3 275/5/3
f 277/8/3 273/8/3 276/8/3
f 279/5/3 275/5/3 274/5/3
f 280/5/3 275/5/3 279/5/3
f 281/5/3 278/5/3 277/5/3
f 282/5/3 278/5/3 281/5/3
f 283/5/3 281/5/3 280/5/3
f 284/5/3 281/5/3 283/5/3
f 288/5/3 286/5/3 285/5/3
f 289/5/3 286/5/3 288/5/3
f 290/5/3 286/5/3 289/5/3
f 292/5/3 288/5/3 287/5/3
f 293/5/3 288/5/3 292/5/3
f 294/5/3 291/5/3 290/5/3
f 295/5/3 291/5/3 294/5/3
f 300/7/3 296/7/3 295/7/3
f 301/7/3 296/7/3 300/7/3
f 302/6/3 298/6/3 297/6/3
f 303/6/3 298/6/3 302/6/3
f 304/5/3 300/5/3 299/5/3
f 305/5/3 300/5/3 304/5/3
f 306/5/3 304/5/3 303/5/3
f 307/5/3 304/5/3 306/5/3
f 308/5/4 309/5/4 311/5/4
f 311/5/4 309/5/4 312/5/4
f 310/5/4 311/5/4 314/5/4
f 314/5/4 311/5/4 315/5/4
f 312/5/4 313/5/4 316/5/4
f 316/5/4 313/5/4 317/5/4
f 317/7/4 318/7/4 319/7/4
f 319/7/4 318/7/4 323/7/4
f 323/7/4 318/7/4 324/7/4
f 320/6/4 321/6/4 325/6/4
f 325/6/4 321/6/4 326/6/4
f 322/5/4 323/5/4 327/5/4
f 327/5/4 323/5/4 328/5/4
f 326/5/4 327/5/4 329/5/4
f 329/5/4 327/5/4 330/5/4
f 331/5/4 332/5/4 334/5/4
f 334/5/4 332/5/4 335/5/4
f 335/5/4 336/5/4 337/5/4
f 337/5/4 336/5/4 338/5/4
f 333/5/4 334/5/4 339/5/4
f 339/5/4 334/5/4 340/5/4
f 337/8/4 338/8/4 345/8/4
f 345/8/4 338/8/4 346/8/4
f 343/5/4 344/5/4 347/5/4
f 344/5/4 345/5/4 347/5/4
f 340/5/4 341/5/4 347/5/4
f 342/5/4 343/5/4 347/5/4
f 341/5/4 342/5/4 347/5/4
f 347/5/4 345/5/4 348/5/4
f 349/5/4 350/5/4 351/5/4
f 351/5/4 350/5/4 352/5/4
f 352/5/4 350/5/4 353/5/4
f 353/5/4 350/5/4 354/5/4
f 349/5/4 351/5/4 355/5/4
f 351/8/4 352/8/4 356/8/4
f 355/5/4 351/5/4 356/5/4
f 352/5/4 353/5/4 357/5/4
f 356/8/4 352/8/4 357/8/4
f 353/8/4 354/8/4 358/8/4
f 357/5/4 353/5/4 358/5/4
f 354/5/4 350/5/4 359/5/4
f 358/8/4 354/8/4 359/8/4
f 359/5/4 350/5/4 360/5/4
f 361/5/4 362/5/4 367/5/4
f 362/8/4 363/8/4 368/8/4
f 367/5/4 362/5/4 368/5/4
f 363/5/4 364/5/4 369/5/4
f 368/8/4 363/8/4 369/8/4
f 364/8/4 365/8/4 370/8/4
f 369/5/4 364/5/4 370/5/4
f 370/8/4 365/8/4 371/8/4
f 366/5/4 367/5/4 373/5/4
f 373/5/4 367/5/4 374/5/4
f 371/5/4 372/5/4 375/5/4
f 375/5/4 372/5/4 376/5/4
f 376/7/4 377/7/4 381/7/4
f 381/7/4 377/7/4 382/7/4
f 378/6/4 379/6/4 383/6/4
f 383/6/4 379/6/4 384/6/4
f 380/5/4 381/5/4 389/5/4
f 389/5/4 381/5/4 390/5/4
f 384/5/4 385/5/4 391/5/4
f 385/8/4 386/8/4 392/8/4
f 391/5/4 385/5/4 392/5/4
f 386/5/4 387/5/4 393/5/4
f 392/8/4 386/8/4 393/8/4
f 387/8/4 388/8/4 394/8/4
f 393/5/4 387/5/4 394/5/4
f 388/5/4 389/5/4 395/5/4
f 394/8/4 388/8/4 395/8/4
f 395/5/4 389/5/4 396/5/4
f 397/5/4 398/5/4 400/5/4
f 400/5/4 398/5/4 401/5/4
f 401/5/4 398/5/4 402/5/4
f 402/5/4 398/5/4 403/5/4
f 399/5/4 400/5/4 405/5/4
f 405/5/4 400/5/4 406/5/4
f 405/6/4 406/6/4 407/6/4
f 407/6/4 406/6/4 408/6/4
f 403/5/4 404/5/4 411/5/4
f 411/5/4 404/5/4 412/5/4
f 409/5/4 410/5/4 413/5/4
f 410/5/4 411/5/4 413/5/4
f 408/5/4 409/5/4 413/5/4
f 413/5/4 411/5/4 414/5/4
f 415/5/4 416/5/4 419/5/4
f 416/8/4 417/8/4 419/8/4
f 417/5/4 418/5/4 420/5/4
f 419/8/4 417/8/4 420/8/4
f 419/5/4 420/5/4 421/5/4
f 420/5/4 418/5/4 421/5/4
f 421/5/4 418/5/4 422/5/4
f 415/5/4 419/5/4 423/5/4
f 419/5/4 421/5/4 423/5/4
f 421/8/4 422/8/4 424/8/4
f 423/5/4 421/5/4 424/5/4
f 422/5/4 418/5/4 425/5/4
f 424/8/4 422/8/4 425/8/4
f 425/5/4 418/5/4 426/5/4
f 430/5/5 428/5/5 427/5/5
f 431/5/5 428/5/5 430/5/5
f 433/5/5 430/5/5 429/5/5
f 433/5/5 431/5/5 430/5/5
f 434/5/5 431/5/5 433/5/5
f 435/6/5 432/6/5 431/6/5
f 435/5/5 431/5/5 434/5/5
f 436/6/5 432/6/5 435/6/5
f 439/5/5 435/5/5 434/5/5
f 440/5/5 435/5/5 439/5/5
f 442/5/5 438/5/5 437/5/5
f 443/5/5 438/5/5 442/5/5
f 445/5/5 442/5/5 441/5/5
f 445/6/5 444/6/5 443/6/5
f 445/5/5 443/5/5 442/5/5
f 446/6/5 444/6/5 445/6/5
f 447/5/5 445/5/5 441/5/5
f 447/5/5 446/5/5 445/5/5
f 448/5/5 446/5/5 447/5/5
f 449/5/5 447/5/5 441/5/5
f 450/5/5 447/5/5 449/5/5
f 451/5/5 447/5/5 450/5/5
f 452/6/5 448/6/5 447/6/5
f 452/5/5 447/5/5 451/5/5
f 453/6/5 448/6/5 452/6/5
f 454/5/5 451/5/5 450/5/5
f 455/6/5 452/6/5 451/6/5
f 455/5/5 451/5/5 454/5/5
f 456/6/5 452/6/5 455/6/5
f 460/5/5 458/5/5 457/5/5
f 461/5/5 458/5/5 460/5/5
f 464/5/5 460/5/5 459/5/5
f 465/5/5 460/5/5 464/5/5
f 466/5/5 462/5/5 461/5/5
f 467/5/5 462/5/5 466/5/5
f 470/5/5 464/5/5 463/5/5
f 471/5/5 464/5/5 470/5/5
f 474/5/5 468/5/5 467/5/5
f 475/5/5 468/5/5 474/5/5
f 477/5/5 470/5/5 469/5/5
f 478/5/5 470/5/5 477/5/5
f 479/5/5 472/5/5 471/5/5
f 480/5/5 472/5/5 479/5/5
f 481/5/5 474/5/5 473/5/5
f 482/5/5 474/5/5 481/5/5
f 484/5/5 477/5/5 476/5/5
f 485/5/5 477/5/5 484/5/5
f 486/5/5 479/5/5 478/5/5
f 487/5/5 479/5/5 486/5/5
f 488/5/5 481/5/5 480/5/5
f 489/5/5 481/5/5 488/5/5
f 490/5/5 488/5/5 487/5/5
f 491/5/5 488/5/5 490/5/5
f 492/5/5 484/5/5 483/5/5
f 493/5/5 484/5/5 492/5/5
f 496/5/5 488/5/5 491/5/5
f 497/5/5 488/5/5 496/5/5
f 498/5/5 494/5/5 493/5/5
f 499/5/5 494/5/5 498/5/5
f 501/5/5 496/5/5 495/5/5
f 502/5/5 496/5/5 501/5/5
f 503/5/5 500/5/5 499/5/5
f 503/5/5 501/5/5 500/5/5
f 504/5/5 501/5/5 503/5/5
f 505/5/6 506/5/6 508/5/6
f 508/5/6 506/5/6 509/5/6
f 507/5/6 508/5/6 512/5/6
f 512/5/6 508/5/6 513/5/6
f 509/5/6 510/5/6 514/5/6
f 514/5/6 510/5/6 515/5/6
f 511/5/6 512/5/6 518/5/6
f 518/5/6 512/5/6 519/5/6
f 515/5/6 516/5/6 522/5/6
f 522/5/6 516/5/6 523/5/6
f 517/5/6 518/5/6 525/5/6
f 525/5/6 518/5/6 526/5/6
f 519/5/6 520/5/6 527/5/6
f 527/5/6 520/5/6 528/5/6
f 521/5/6 522/5/6 530/5/6
f 530/5/6 522/5/6 531/5/6
f 524/8/6 525/8/6 533/8/6
f 533/8/6 525/8/6 534/8/6
f 526/5/6 527/5/6 535/5/6
f 535/5/6 527/5/6 536/5/6
f 528/5/6 529/5/6 537/5/6
f 529/5/6 530/5/6 537/5/6
f 537/5/6 530/5/6 538/5/6
f 532/5/6 533/5/6 539/5/6
f 539/5/6 533/5/6 540/5/6
f 539/8/6 540/8/6 541/8/6
f 541/8/6 540/8/6 542/8/6
f 536/5/6 537/5/6 545/5/6
f 545/5/6 537/5/6 546/5/6
f 542/5/6 543/5/6 547/5/6
f 547/5/6 543/5/6 548/5/6
f 544/5/6 545/5/6 549/5/6
f 549/5/6 545/5/6 550/5/6
f 548/5/6 549/5/6 551/5/6
f 551/5/6 549/5/6 552/5/6
f 553/5/6 554/5/6 556/5/6
f 556/5/6 554/5/6 557/5/6
f 555/5/6 556/5/6 559/5/6
f 559/5/6 556/5/6 560/5/6
f 557/5/6 558/5/6 562/5/6
f 562/5/6 558/5/6 563/5/6
f 560/5/6 561/5/6 566/5/6
f 561/8/6 562/8/6 567/8/6
f 566/5/6 561/5/6 567/5/6
f 567/8/6 562/8/6 568/8/6
f 564/5/6 565/5/6 570/5/6
f 570/5/6 565/5/6 571/5/6
f 569/5/6 570/5/6 573/5/6
f 573/5/6 570/5/6 574/5/6
f 571/5/6 572/5/6 575/5/6
f 575/5/6 572/5/6 576/5/6
f 574/5/6 575/5/6 577/5/6
f 577/5/6 575/5/6 578/5/6
f 579/7/6 580/7/6 581/7/6
f 581/7/6 580/7/6 582/7/6
f 583/7/6 584/7/6 585/7/6
f 585/7/6 584/7/6 586/7/6
